<mxfile host="65bd71144e">
    <diagram id="iqRXb3r6-IVd_ZkthrEU" name="Page-1">
        <mxGraphModel dx="1694" dy="1184" grid="1" gridSize="10" guides="1" tooltips="1" connect="1" arrows="1" fold="1" page="0" pageScale="1" pageWidth="1169" pageHeight="1654" math="0" shadow="0">
            <root>
                <mxCell id="0"/>
                <mxCell id="1" parent="0"/>
                <mxCell id="3" value="" style="shape=image;verticalLabelPosition=bottom;labelBackgroundColor=#ffffff;verticalAlign=top;aspect=fixed;imageAspect=0;image=data:image/png,iVBORw0KGgoAAAANSUhEUgAAAT8AAABYCAYAAACDIPD9AAAAAXNSR0IArs4c6QAAAARnQU1BAACxjwv8YQUAAAAJcEhZcwAADsMAAA7DAcdvqGQAABEFSURBVHhe7d0JVBRXugfwf680sq+C4gKECAIiKkEhbkFxFBM16rjOuCXOZHUdoyRGo06MinmKyTOJceJu4qhodBIFREVRiSKLsqkhCgqCIApC001331fdFGPiRnf7cDLU9zuHo3x9m3O83vrfW9W3KBHjgBBCBEbM/0kIIYJC4UcIESQ67X0G6u/k4sB3B5BZXA93/wiMGhEKZ5mIf5U8mg4lKZuwrbAb/jauK18jD7pXlIrvvz+G/FIlbD26YvDwKHR2lfGvkieh8GtmyoJdmDj4L4iv9kBXTxEuZeTDpudCxO2PRqA1Lbwfp64wDhMjJiE35Etk7xjHV8l9Ovy8fx5enhyLEtsABPtYo/jiORTiBazaG4e3whz4duRx6OhrTroybF3wAZJEf8SPWek4kZKBzITFcMhYiYXrsrjhSx6mQ+nZrzAmcir2Xqnha+RBuppjWDx7A3Thq5GWn4akxGRcyE3AtPY5WDorFj/X05qmKRR+zUhdnoBdCTfQb8pMhDlLuYoYbmHv4N1XPJDyz900QB+iwel1YxDcdx7Kur2G0UG2fJ08SHnpPPLuOWHEXyfBS9FwCUXm0BNTRndD5YVzyFXS2GoKhV8zqs3OQn6NEwKD2/2qoy0RFOSN6stZyKumAfpbDPUKfyzel4ZjW16Hdys5XycPsgqei7OlBVg+9NcThBKXrxRD5ugMR7rs1yQKv2ZUf6sclcwRzq76VV8jCVxdHAFVOSoqNXyNNJChz+uLMT3SGxb0eZDJSk+sxrIdVxAy9s/obkmHdlOoh5qRTqvhTuSkkEt/eySLpRKu49Woq6OVH/n/oEPJ6dUY9cdPUB38HmIX94UF/wp5PAq/ZiRVWHKDUA2V6rchp1apoRMpYEmzM3lq9cjZMw+Dot5Hid987Nn3Pu0iMBL1UjOSebRFa/EtlJSo+YqeBsU3yoBWreHuIuFrhJijCsfXTEDE+PVQDFmHQwc+RHfHX19iIU9C4deMrH17IMjlHtJOZUPL16ArR8rpS3DuEgp/S7qwRcxVj7PrX8OoeYnoNns3ftz8Gp6zovFkCgq/ZiS26YvJY/xx8svZWHngCmrrypC0bhZi4msxdNoYuD9wLZAQYynzNuDd6H2QBo7EK4F3EL/rW+zcudPw9e2uJBTS9eSm6e/wIM1Hc/ccWzbCnylEYiaVSphY5sIGz9nLyjQ6vgV5JE0+W9DLlXUet4MvkPs0LPXjgYw7wdUn3ENfInl/9l2xmm9LHodub3smNCi7nI6cojq4PB8Mfw9rvk4I+U+h8COECBJd8yOECBKFHyFEkCj8CCGCROFHCBEkCj9CiCBR+BFCBIm2uphBJKI7Mwj5vTA3wmjlRwgRJFr5maFx5Udd17TGvtLpdLRiNgKNLeOJxWJDP5nbV7TyI4QIEoUfIUSQKPwIIYJE4UcIESQKP0KIIFH4EUIEiba6mMHs7Qi6O0jcGIssh5GYOcpfEDOPOVtdVKXnsS8uEbklarj69ceoEWFwFciDfE0dW6qydOzbHY+cUjWcvcMxfGR/tBPIszyedquL/o3ERPpuM73rtOyXuLdYO5mUdZsWx1R8taVr7Csu/PjKk2hZ0dGlLMRFwRw6BLPeYQHMRSFjnv2WsqxqLd+mZTNlbFWkrWN92lgyq9Z+LLx3D+ZhK2VuQW+yJIH8CntuojDjOLyPTnufEXXxfsyetQU3zZ2lBEB79yiip8egJnw1zuamITklE+f/NQfyMyux/JsCvhUx0JVg04erkGU3CfEXs3Ay+SwunIqFT/E3WLQqBfV8M/J4JoSfFvk/rEX0/AVY9V0W/yhGLXIP/o+htuyb06gz1HS4lvQF3udqf9+UCpWhJnDa69g4Mxo5nSdjpJ8NXyQPuvHDdhwoCcaC1a/D2/BYTzE8+r6NFauiEdFJGKdyxmKaa8j7uQpe4YPRw7nhWb32fkMR2cUe13JyUEtzbJNMCD8JbOty8EXMCqz4eCcuq3WG2WdfbAw+WfEJVizdiotKrsd1t/F97AosX7kaqdcVkPHvFi4tLmyahyWnfLF87US4SelB5Y+mRkZqFuS+ffCC43XEb12LJYuX4cu9N9D7r+9hWqQ3347oiaTe6B7ojJ+Px+FkccND8W9f3IdDmXfhHRSIVjRXNMmk017X/oMQ5mSByrzjOHVVDW3VGZzMqDBcpKi5noqfrnC1eyk4cuYmIA3AwKFeOPXZa3h5wuqGHyBAtfnf4O33UzBq5RoM6yjnq+RhdSgqLOeO6mws7NcLk5btQMKh7Zg/4UX0ilqJ7BpayvyG2AVTYjdgeodkvOzvg6BgP/iGRaM+Mgb/+0E4LTqMYFL4Sez6YHC4O1h9Bo4lluL2mRSkVWpgbWsNkSYXp0+WoiLlKE6Xq+DoF4kBnS0gV1jDzsaS/wnCwtR5iHlrGaoHfoJFY9qDJuMn0NWiRqlB2blDqBywCRezz+DEmYtI+34WxCeXYMGaDL4haVCF5C1rse10NYIjR2D4sOEYHNoGuYc34tsjReDOy0gTTPvAQ+yIQUNCoIAKPx1NxKnjqSjXWiPq9YnwlHGnLSnJSD58kqtJEDgoCt4yMTRqJTeoG5blwqJCyqezsO6XfoiJGQ1nCUXfE4m5iVIugdR2AGZER8JJqu8vCbwiZ2FqHwekxSc2tCMGNdlfY+6SBATPPYAj363BR4uXY3P8MXw6SImYtz9E8l2Kv6aYFn5c83aDItHNRoKrJ7bj88QcMIsgRE1/GT3bKHA1ZRPWH74EJu3InfJ2g1ykw83sVCQcucC/XziYpgAH96ehvGAzItxkhv1bYlkw1qRX4PzGEVDIQ/BVDn0cdF8ruLvZQdbKHnYKvqQntoOzkyXU1Xf4AtGrzsxAnvp5DHk1CBZ8DRJ3DBvdB7KyczifT2OrKSaGH2DRJgKR3Z2hLjuGxLQq7vT2RYR6hqF3iBtqrh5BUl41rNoNQGRIK/4dwiSStsXYjz7Hjh077n9tW4mhntbwjHgPW7Yuw0sedGXmPhm6hwZAUp6OtLz7Zwr6SSQn/w4cPX34CtGTOzjAVlSG60UNeywa6FBZVg6VyBb2DiYf2sLD7/czgYadWzmIyUT6zzkkrOebh5iKaVnOZ8OZnK/1mH6Q1RnaqtieN4OYVduphu9aCn23mdN1uvp0NjPYiTY5P4bmdjyb4GPH2r4wgx2+fJdpaq6yXdGRzF7WgS04eItv1bIZO7a01cnsdX8H5tplGtubdYs7AlXsWsrnbHBHa+Y1aC0rqjdmU/l/t//AJmcJfIcMgJ+Ceyt3ShLaLwRybgHZvk8vPG8hhkjiioih4feX4oQYSeIwELG7PkUv5U4M6eQMS3svTPisAMM+3ooFUc58K6Intu6NFTvXIkL6A0YHucHS0gZevefgqs87+OYfb8DDcM2UPEkz39urxt63XsCf93fHvesb+dp/P1PvvxSyxr4y6dfY62rwy4UMFFZZwDOgK9o7NGziFQLTx5YS13MycfmmGvYdAtDF25FbngjD097bS7/YwAwUfsYzK/wEjMaW8egZHoQQYgYKP0KIIFH4EUIEicKPECJIFH6EEEGi8COECBJtdTEDbdkg5PeDtroQQogJaOVnBtqIajza5GwaGlvGo03OhBBiBgo/QoggUfgRQgSJwo8QIkgUfoQQQaLwI4QIEm11MYOx2xHqy3Nx4txVqB7VTGyDTqFh8LJv2fOPOVtdVKXnsS8uEbklarj69ceoEWFwtRDGNhlTt7ooS85i755EXKmUwTtkCEb8oTOs+Ndauqfd6qJ/IzGRvtuM6bqKQzOZq6ThOQMPfolkgWxNmpJv2XI1/nuNeYYHY1pWdHQpC3FRMIcOwax3WABzUciYZ7+lLKtay7dp2Rr7q2laVpi4mHVzkjNLJx8WGt6DtbNTsE4Dl7L0SmH0FTdRGNlXj0bhZwZjB6hOdY9VlJexsrL7Xzcyv2aDPKxZ0NjNrFgAD5lp7Ctjwk9zJ5H9yceOdR7+ObtSq2/PheGR+ayTwoaNi73c0KiFM3ZsaasS2URvW+bWbQY7Uaw21Kpyt7Co9jas98xE1vKn1WcefvUsY88KNv+9aLYhoYBdOBDDpr46iA0YMo4t3JDCKjV8sxbO2AH6EE0Bixnqxex8prOUCmGtZIwJv2s7pjB7635s688NB7OB5jrbt245+/rwFb7Qshk7tm7Hz2Zu8tZs9t5yvqJXz44u7M2s2k5mJ2ta/vh6xuFXx76bHsDEkDDPrsHMRSb+938WRFZs4N/iWTXfsiUzdoD+lpZd5g5uV3l7NnfPde47YWjsq6bDT8X2z+jOXHt8yPIrC9jhLWvYR4uWsi92pbIKAayQGxk7tm7unMwsZcHss8xfr/G0LH/9q0wuC2VfX2p4eGxL9rThZ+bVdi2uZd/GsE+Po7isALs/iISduAZHYt/H9osq1KR/ibFR4/GPn5R8e6KrOYOVy+JgEzEPs15pQx+zP6QORYXlgCgbC/v1wqRlO5BwaDvmT3gRvaJWIrtGP85JIwt3N7iIbuDKpWq+oleP/Lxr0LK7uF2u4Wvkccw8BkVwD38bS94Ih7uLJ179YCFGetlCp87EsaQSQKaArZ0NFHK+ueDp8MveL7DrsgMmzp4Id3qm6sN0tahRalB27hAqB2zCxewzOHHmItK+nwXxySVYsCaDb0j07EJfxTB/HTZHv41tqTe52FMi98ASLNqWDf2CyLCGJE9kdvg5degIR0nDQSySdYBXeyv9AhTlpVz4aetRW6NEPU0+DXTF2L39KKT+YzG+ry3Xe+QhYgvI5RJIbQdgRnQknAwThARekbMwtY8D0uITG9oRA5EiBEs2r8JL8iRM6tUWVgp79HrnHIbPHAMXiTVsbIXzrGNzmRl+DLV373KzDY8pUavUGv6qULSC+lYekg4l4VLZv1sImrr0CH48U4GQV0bCW0bR92it4O5mB1kre9gp+JKe2A7OTpZQV9/hC6SRfeBk7M68jNzUo0g4loGCSz9gfOta3JV7oGM7Gd+KPI7Z4Vd0+iCSrjeEW11hMpJzKrmf5gjfLh0MNXJf5elTyKhtgxdf8hXM0/RNJ0P30ABIytORlqfma9xI0xQgJ/8OHD19+ArR01Ym4r2Rw7EqnuH5kD7o29MPjtIyHDx4Fs4h/dDVmibZpph93V1Vuh9T+v0B096YisiBc5ByRwOHTuMxPtKOb0EaaJCXmQulwh/BXS35GnmYGJ4jpmBYx2tY9cZ8xF+pgrb2GnYvmo2vM60wcupQvh3RE9u4A8Wnsfajj5Fyow5MdROHV7+DFYeBce+Ogzt/SYo8Af+pr5Eat7qIWceI19iUXm0Z18cMIjFzen4025Z+x9DqdsIc5i5vy6L/ddfwfUuj7zbju66ObZ3sy+x83mXpSuFs2WjU2FfG3eHBWEX6RjYq0JVJxDImk4mZzPY5NmlVMqviX2/pTBlb5efWs8HP2TMR11cWXF8pnALZG5+dYvf411u6p93qYuK9vSrs+ksPjPsqB77jt+P81iEoOp+BYq0rgrp3gh3/KWZl4lz4R32LKXE5+PsQW0OtJeE63fCnSV0nUI19xYWf0ff2QleDXy5koLDKAp4BXdHeQTgX700dW0x9G7kZF3BL5wTfAD+0thbOhZWnvbf36cJv+1hY8K8ICYWf8cwKPwGjsWU8eoYHIYSYwcSVnw4l2SeQWahEqzZBeDHIXZDpSbOz8WjlZxoaW8Z7xqe9RI8GqPEo/ExDY8t4dNpLCCFmoPAjhAgShR8hRJDomp8Z6NoVIb8fdM2PEEJMQCs/Qogg0cqPECJIFH6EEEGi8COECBKFHyFEgID/AwVS4n9rIYtRAAAAAElFTkSuQmCC;" vertex="1" parent="1">
                    <mxGeometry x="-50" width="319" height="88" as="geometry"/>
                </mxCell>
                <mxCell id="4" value="C = 14&lt;br&gt;P = 0" style="rounded=0;whiteSpace=wrap;html=1;" vertex="1" parent="1">
                    <mxGeometry x="610" y="10" width="60" height="50" as="geometry"/>
                </mxCell>
                <mxCell id="6" value="C = 10&lt;br&gt;P = 7" style="rounded=0;whiteSpace=wrap;html=1;" vertex="1" parent="1">
                    <mxGeometry x="180" y="160" width="55" height="40" as="geometry"/>
                </mxCell>
                <mxCell id="7" value="" style="endArrow=none;dashed=1;html=1;entryX=0;entryY=1;entryDx=0;entryDy=0;exitX=0.5;exitY=0;exitDx=0;exitDy=0;" edge="1" parent="1" source="6" target="4">
                    <mxGeometry width="50" height="50" relative="1" as="geometry">
                        <mxPoint x="230" y="240" as="sourcePoint"/>
                        <mxPoint x="280" y="190" as="targetPoint"/>
                    </mxGeometry>
                </mxCell>
                <mxCell id="8" value="+item[0]" style="text;html=1;strokeColor=none;fillColor=none;align=center;verticalAlign=middle;whiteSpace=wrap;rounded=0;" vertex="1" parent="1">
                    <mxGeometry x="390" y="80" width="80" height="30" as="geometry"/>
                </mxCell>
                <mxCell id="12" value="C = 8&lt;br&gt;P = 6" style="rounded=0;whiteSpace=wrap;html=1;" vertex="1" parent="1">
                    <mxGeometry x="630" y="170" width="50" height="40" as="geometry"/>
                </mxCell>
                <mxCell id="13" value="" style="endArrow=none;dashed=1;html=1;dashPattern=1 3;strokeWidth=2;exitX=0.5;exitY=1;exitDx=0;exitDy=0;entryX=0.5;entryY=0;entryDx=0;entryDy=0;" edge="1" parent="1" source="4" target="12">
                    <mxGeometry width="50" height="50" relative="1" as="geometry">
                        <mxPoint x="610" y="360" as="sourcePoint"/>
                        <mxPoint x="660" y="310" as="targetPoint"/>
                    </mxGeometry>
                </mxCell>
                <mxCell id="16" value="+item[0]+item[0]" style="text;html=1;strokeColor=none;fillColor=none;align=center;verticalAlign=middle;whiteSpace=wrap;rounded=0;" vertex="1" parent="1">
                    <mxGeometry x="50" y="250" width="130" height="30" as="geometry"/>
                </mxCell>
                <mxCell id="17" value="C = 2&lt;br&gt;P = 21" style="rounded=0;whiteSpace=wrap;html=1;" vertex="1" parent="1">
                    <mxGeometry x="-70" y="560" width="55" height="40" as="geometry"/>
                </mxCell>
                <mxCell id="18" value="C = 6&lt;br&gt;P = 14" style="rounded=0;whiteSpace=wrap;html=1;" vertex="1" parent="1">
                    <mxGeometry x="40" y="350" width="55" height="40" as="geometry"/>
                </mxCell>
                <mxCell id="19" value="" style="endArrow=none;dashed=1;html=1;exitX=1;exitY=0;exitDx=0;exitDy=0;entryX=0;entryY=1;entryDx=0;entryDy=0;" edge="1" parent="1" source="18" target="6">
                    <mxGeometry width="50" height="50" relative="1" as="geometry">
                        <mxPoint x="610" y="250" as="sourcePoint"/>
                        <mxPoint x="660" y="200" as="targetPoint"/>
                    </mxGeometry>
                </mxCell>
                <mxCell id="20" value="+item[0]+item[0]+item[0]" style="text;html=1;strokeColor=none;fillColor=none;align=center;verticalAlign=middle;whiteSpace=wrap;rounded=0;" vertex="1" parent="1">
                    <mxGeometry x="-90" y="450" width="130" height="30" as="geometry"/>
                </mxCell>
                <mxCell id="21" value="" style="endArrow=none;dashed=1;html=1;exitX=0.5;exitY=0;exitDx=0;exitDy=0;entryX=0;entryY=1;entryDx=0;entryDy=0;" edge="1" parent="1" source="17" target="18">
                    <mxGeometry width="50" height="50" relative="1" as="geometry">
                        <mxPoint x="610" y="250" as="sourcePoint"/>
                        <mxPoint x="660" y="200" as="targetPoint"/>
                    </mxGeometry>
                </mxCell>
                <mxCell id="22" value="+item[0]+item[0]+item[1]" style="text;html=1;strokeColor=none;fillColor=none;align=center;verticalAlign=middle;whiteSpace=wrap;rounded=0;" vertex="1" parent="1">
                    <mxGeometry x="60" y="460" width="130" height="30" as="geometry"/>
                </mxCell>
                <mxCell id="24" value="C = 0&lt;br&gt;P = 20" style="rounded=0;whiteSpace=wrap;html=1;" vertex="1" parent="1">
                    <mxGeometry x="95" y="560" width="55" height="40" as="geometry"/>
                </mxCell>
                <mxCell id="25" value="" style="endArrow=none;dashed=1;html=1;exitX=1;exitY=0;exitDx=0;exitDy=0;entryX=1;entryY=1;entryDx=0;entryDy=0;" edge="1" parent="1" source="24" target="18">
                    <mxGeometry width="50" height="50" relative="1" as="geometry">
                        <mxPoint x="610" y="250" as="sourcePoint"/>
                        <mxPoint x="660" y="200" as="targetPoint"/>
                    </mxGeometry>
                </mxCell>
                <mxCell id="28" value="+item[0]+item[1]" style="text;html=1;strokeColor=none;fillColor=none;align=center;verticalAlign=middle;whiteSpace=wrap;rounded=0;" vertex="1" parent="1">
                    <mxGeometry x="170" y="280" width="130" height="30" as="geometry"/>
                </mxCell>
                <mxCell id="30" value="C = 4&lt;br&gt;P = 13" style="rounded=0;whiteSpace=wrap;html=1;" vertex="1" parent="1">
                    <mxGeometry x="197.5" y="360" width="55" height="40" as="geometry"/>
                </mxCell>
                <mxCell id="31" value="" style="endArrow=none;dashed=1;html=1;entryX=0.5;entryY=1;entryDx=0;entryDy=0;exitX=0.5;exitY=0;exitDx=0;exitDy=0;" edge="1" parent="1" source="30" target="6">
                    <mxGeometry width="50" height="50" relative="1" as="geometry">
                        <mxPoint x="610" y="250" as="sourcePoint"/>
                        <mxPoint x="660" y="200" as="targetPoint"/>
                    </mxGeometry>
                </mxCell>
                <mxCell id="38" value="C = 0&lt;br&gt;P = 20" style="rounded=0;whiteSpace=wrap;html=1;" vertex="1" parent="1">
                    <mxGeometry x="295" y="560" width="55" height="40" as="geometry"/>
                </mxCell>
                <mxCell id="39" value="+item[0]+item[1]+item[0]" style="text;html=1;strokeColor=none;fillColor=none;align=center;verticalAlign=middle;whiteSpace=wrap;rounded=0;" vertex="1" parent="1">
                    <mxGeometry x="220" y="460" width="130" height="30" as="geometry"/>
                </mxCell>
                <mxCell id="40" value="" style="endArrow=none;dashed=1;html=1;exitX=0.5;exitY=1;exitDx=0;exitDy=0;entryX=0.5;entryY=0;entryDx=0;entryDy=0;" edge="1" parent="1" source="30" target="38">
                    <mxGeometry width="50" height="50" relative="1" as="geometry">
                        <mxPoint x="610" y="280" as="sourcePoint"/>
                        <mxPoint x="660" y="230" as="targetPoint"/>
                    </mxGeometry>
                </mxCell>
                <mxCell id="41" value="+item[0]+item[2]" style="text;html=1;strokeColor=none;fillColor=none;align=center;verticalAlign=middle;whiteSpace=wrap;rounded=0;" vertex="1" parent="1">
                    <mxGeometry x="260" y="240" width="130" height="30" as="geometry"/>
                </mxCell>
                <mxCell id="43" value="C = 2&lt;br&gt;P = 16" style="rounded=0;whiteSpace=wrap;html=1;" vertex="1" parent="1">
                    <mxGeometry x="350" y="370" width="55" height="40" as="geometry"/>
                </mxCell>
                <mxCell id="44" value="" style="endArrow=none;dashed=1;html=1;exitX=1;exitY=1;exitDx=0;exitDy=0;entryX=0;entryY=0;entryDx=0;entryDy=0;" edge="1" parent="1" source="6" target="43">
                    <mxGeometry width="50" height="50" relative="1" as="geometry">
                        <mxPoint x="610" y="280" as="sourcePoint"/>
                        <mxPoint x="660" y="230" as="targetPoint"/>
                    </mxGeometry>
                </mxCell>
                <mxCell id="51" value="+item[1]" style="text;html=1;strokeColor=none;fillColor=none;align=center;verticalAlign=middle;whiteSpace=wrap;rounded=0;" vertex="1" parent="1">
                    <mxGeometry x="600" y="100" width="80" height="30" as="geometry"/>
                </mxCell>
                <mxCell id="52" value="+item[2]" style="text;html=1;strokeColor=none;fillColor=none;align=center;verticalAlign=middle;whiteSpace=wrap;rounded=0;" vertex="1" parent="1">
                    <mxGeometry x="830" y="80" width="80" height="30" as="geometry"/>
                </mxCell>
                <mxCell id="53" value="C = 6&lt;br&gt;P = 9" style="rounded=0;whiteSpace=wrap;html=1;" vertex="1" parent="1">
                    <mxGeometry x="1050" y="170" width="50" height="40" as="geometry"/>
                </mxCell>
                <mxCell id="54" value="" style="endArrow=none;dashed=1;html=1;entryX=1;entryY=1;entryDx=0;entryDy=0;exitX=0.5;exitY=0;exitDx=0;exitDy=0;" edge="1" parent="1" source="53" target="4">
                    <mxGeometry width="50" height="50" relative="1" as="geometry">
                        <mxPoint x="610" y="280" as="sourcePoint"/>
                        <mxPoint x="660" y="230" as="targetPoint"/>
                    </mxGeometry>
                </mxCell>
                <mxCell id="55" value="C = 4&lt;br&gt;P = 13" style="rounded=0;whiteSpace=wrap;html=1;" vertex="1" parent="1">
                    <mxGeometry x="480" y="360" width="50" height="40" as="geometry"/>
                </mxCell>
                <mxCell id="56" value="C = 0&lt;br&gt;P = 20" style="rounded=0;whiteSpace=wrap;html=1;" vertex="1" parent="1">
                    <mxGeometry x="440" y="560" width="50" height="40" as="geometry"/>
                </mxCell>
                <mxCell id="57" value="+item[1]+item[0]" style="text;html=1;strokeColor=none;fillColor=none;align=center;verticalAlign=middle;whiteSpace=wrap;rounded=0;" vertex="1" parent="1">
                    <mxGeometry x="480" y="260" width="130" height="30" as="geometry"/>
                </mxCell>
                <mxCell id="58" value="+item[1]+item[0]+item[0]" style="text;html=1;strokeColor=none;fillColor=none;align=center;verticalAlign=middle;whiteSpace=wrap;rounded=0;" vertex="1" parent="1">
                    <mxGeometry x="430" y="480" width="130" height="30" as="geometry"/>
                </mxCell>
                <mxCell id="60" value="" style="endArrow=none;dashed=1;html=1;entryX=0;entryY=1;entryDx=0;entryDy=0;exitX=0.5;exitY=0;exitDx=0;exitDy=0;" edge="1" parent="1" source="55" target="12">
                    <mxGeometry width="50" height="50" relative="1" as="geometry">
                        <mxPoint x="610" y="280" as="sourcePoint"/>
                        <mxPoint x="660" y="230" as="targetPoint"/>
                    </mxGeometry>
                </mxCell>
                <mxCell id="61" value="" style="endArrow=none;dashed=1;html=1;exitX=0.5;exitY=0;exitDx=0;exitDy=0;entryX=0.5;entryY=1;entryDx=0;entryDy=0;" edge="1" parent="1" source="56" target="55">
                    <mxGeometry width="50" height="50" relative="1" as="geometry">
                        <mxPoint x="610" y="280" as="sourcePoint"/>
                        <mxPoint x="660" y="230" as="targetPoint"/>
                    </mxGeometry>
                </mxCell>
                <mxCell id="62" value="C = 2&lt;br&gt;P = 12" style="rounded=0;whiteSpace=wrap;html=1;" vertex="1" parent="1">
                    <mxGeometry x="650" y="360" width="50" height="40" as="geometry"/>
                </mxCell>
                <mxCell id="64" value="+item[1]+item[1]" style="text;html=1;strokeColor=none;fillColor=none;align=center;verticalAlign=middle;whiteSpace=wrap;rounded=0;" vertex="1" parent="1">
                    <mxGeometry x="610" y="270" width="130" height="30" as="geometry"/>
                </mxCell>
                <mxCell id="65" value="" style="endArrow=none;dashed=1;html=1;entryX=0.5;entryY=1;entryDx=0;entryDy=0;exitX=0.5;exitY=0;exitDx=0;exitDy=0;" edge="1" parent="1" source="62" target="12">
                    <mxGeometry width="50" height="50" relative="1" as="geometry">
                        <mxPoint x="610" y="280" as="sourcePoint"/>
                        <mxPoint x="660" y="230" as="targetPoint"/>
                    </mxGeometry>
                </mxCell>
                <mxCell id="66" value="C = 0&lt;br&gt;P = 15" style="rounded=0;whiteSpace=wrap;html=1;" vertex="1" parent="1">
                    <mxGeometry x="810" y="360" width="50" height="40" as="geometry"/>
                </mxCell>
                <mxCell id="67" value="+item[1]+item[2]" style="text;html=1;strokeColor=none;fillColor=none;align=center;verticalAlign=middle;whiteSpace=wrap;rounded=0;" vertex="1" parent="1">
                    <mxGeometry x="740" y="270" width="130" height="30" as="geometry"/>
                </mxCell>
                <mxCell id="68" value="" style="endArrow=none;dashed=1;html=1;entryX=1;entryY=1;entryDx=0;entryDy=0;exitX=0.5;exitY=0;exitDx=0;exitDy=0;" edge="1" parent="1" source="66" target="12">
                    <mxGeometry width="50" height="50" relative="1" as="geometry">
                        <mxPoint x="610" y="280" as="sourcePoint"/>
                        <mxPoint x="660" y="230" as="targetPoint"/>
                    </mxGeometry>
                </mxCell>
                <mxCell id="69" value="C = 2&lt;br&gt;P = 16" style="rounded=0;whiteSpace=wrap;html=1;" vertex="1" parent="1">
                    <mxGeometry x="930" y="360" width="50" height="40" as="geometry"/>
                </mxCell>
                <mxCell id="70" value="+item[2]+item[0]" style="text;html=1;strokeColor=none;fillColor=none;align=center;verticalAlign=middle;whiteSpace=wrap;rounded=0;" vertex="1" parent="1">
                    <mxGeometry x="930" y="270" width="130" height="30" as="geometry"/>
                </mxCell>
                <mxCell id="71" value="+item[2]+item[1]" style="text;html=1;strokeColor=none;fillColor=none;align=center;verticalAlign=middle;whiteSpace=wrap;rounded=0;" vertex="1" parent="1">
                    <mxGeometry x="1090" y="270" width="130" height="30" as="geometry"/>
                </mxCell>
                <mxCell id="73" value="C = 0&lt;br&gt;P = 15" style="rounded=0;whiteSpace=wrap;html=1;" vertex="1" parent="1">
                    <mxGeometry x="1140" y="360" width="50" height="40" as="geometry"/>
                </mxCell>
                <mxCell id="74" value="" style="endArrow=none;dashed=1;html=1;entryX=0;entryY=1;entryDx=0;entryDy=0;exitX=1;exitY=0;exitDx=0;exitDy=0;" edge="1" parent="1" source="69" target="53">
                    <mxGeometry width="50" height="50" relative="1" as="geometry">
                        <mxPoint x="500" y="380" as="sourcePoint"/>
                        <mxPoint x="550" y="330" as="targetPoint"/>
                    </mxGeometry>
                </mxCell>
                <mxCell id="75" value="" style="endArrow=none;dashed=1;html=1;entryX=1;entryY=1;entryDx=0;entryDy=0;exitX=0.5;exitY=0;exitDx=0;exitDy=0;" edge="1" parent="1" source="73" target="53">
                    <mxGeometry width="50" height="50" relative="1" as="geometry">
                        <mxPoint x="500" y="380" as="sourcePoint"/>
                        <mxPoint x="550" y="330" as="targetPoint"/>
                    </mxGeometry>
                </mxCell>
            </root>
        </mxGraphModel>
    </diagram>
    <diagram id="pEYDIdqsLtyUPDcQddS2" name="Page-2">
        <mxGraphModel dx="1290" dy="1392" grid="1" gridSize="10" guides="1" tooltips="1" connect="1" arrows="1" fold="1" page="0" pageScale="1" pageWidth="1169" pageHeight="1654" math="0" shadow="0">
            <root>
                <mxCell id="vHiuGvwrCsPzY3A71Z2k-0"/>
                <mxCell id="vHiuGvwrCsPzY3A71Z2k-1" parent="vHiuGvwrCsPzY3A71Z2k-0"/>
                <mxCell id="H97n-G6GHY3fc7BMN22Z-0" value="" style="shape=table;startSize=0;container=1;collapsible=0;childLayout=tableLayout;" vertex="1" parent="vHiuGvwrCsPzY3A71Z2k-1">
                    <mxGeometry x="-170" y="-630" width="300" height="800" as="geometry"/>
                </mxCell>
                <mxCell id="H97n-G6GHY3fc7BMN22Z-1" value="" style="shape=partialRectangle;collapsible=0;dropTarget=0;pointerEvents=0;fillColor=none;top=0;left=0;bottom=0;right=0;points=[[0,0.5],[1,0.5]];portConstraint=eastwest;" vertex="1" parent="H97n-G6GHY3fc7BMN22Z-0">
                    <mxGeometry width="300" height="40" as="geometry"/>
                </mxCell>
                <mxCell id="H97n-G6GHY3fc7BMN22Z-2" value="" style="shape=partialRectangle;html=1;whiteSpace=wrap;connectable=0;overflow=hidden;fillColor=none;top=0;left=0;bottom=0;right=0;pointerEvents=1;" vertex="1" parent="H97n-G6GHY3fc7BMN22Z-1">
                    <mxGeometry width="60" height="40" as="geometry">
                        <mxRectangle width="60" height="40" as="alternateBounds"/>
                    </mxGeometry>
                </mxCell>
                <mxCell id="H97n-G6GHY3fc7BMN22Z-3" value="" style="shape=partialRectangle;html=1;whiteSpace=wrap;connectable=0;overflow=hidden;fillColor=none;top=0;left=0;bottom=0;right=0;pointerEvents=1;" vertex="1" parent="H97n-G6GHY3fc7BMN22Z-1">
                    <mxGeometry x="60" width="60" height="40" as="geometry">
                        <mxRectangle width="60" height="40" as="alternateBounds"/>
                    </mxGeometry>
                </mxCell>
                <mxCell id="H97n-G6GHY3fc7BMN22Z-4" value="" style="shape=partialRectangle;html=1;whiteSpace=wrap;connectable=0;overflow=hidden;fillColor=none;top=0;left=0;bottom=0;right=0;pointerEvents=1;" vertex="1" parent="H97n-G6GHY3fc7BMN22Z-1">
                    <mxGeometry x="120" width="60" height="40" as="geometry">
                        <mxRectangle width="60" height="40" as="alternateBounds"/>
                    </mxGeometry>
                </mxCell>
                <mxCell id="H97n-G6GHY3fc7BMN22Z-5" value="" style="shape=partialRectangle;html=1;whiteSpace=wrap;connectable=0;overflow=hidden;fillColor=none;top=0;left=0;bottom=0;right=0;pointerEvents=1;" vertex="1" parent="H97n-G6GHY3fc7BMN22Z-1">
                    <mxGeometry x="180" width="60" height="40" as="geometry">
                        <mxRectangle width="60" height="40" as="alternateBounds"/>
                    </mxGeometry>
                </mxCell>
                <mxCell id="H97n-G6GHY3fc7BMN22Z-6" value="" style="shape=partialRectangle;html=1;whiteSpace=wrap;connectable=0;overflow=hidden;fillColor=none;top=0;left=0;bottom=0;right=0;pointerEvents=1;" vertex="1" parent="H97n-G6GHY3fc7BMN22Z-1">
                    <mxGeometry x="240" width="60" height="40" as="geometry">
                        <mxRectangle width="60" height="40" as="alternateBounds"/>
                    </mxGeometry>
                </mxCell>
                <mxCell id="H97n-G6GHY3fc7BMN22Z-7" value="" style="shape=partialRectangle;collapsible=0;dropTarget=0;pointerEvents=0;fillColor=none;top=0;left=0;bottom=0;right=0;points=[[0,0.5],[1,0.5]];portConstraint=eastwest;" vertex="1" parent="H97n-G6GHY3fc7BMN22Z-0">
                    <mxGeometry y="40" width="300" height="40" as="geometry"/>
                </mxCell>
                <mxCell id="H97n-G6GHY3fc7BMN22Z-8" value="" style="shape=partialRectangle;html=1;whiteSpace=wrap;connectable=0;overflow=hidden;fillColor=none;top=0;left=0;bottom=0;right=0;pointerEvents=1;" vertex="1" parent="H97n-G6GHY3fc7BMN22Z-7">
                    <mxGeometry width="60" height="40" as="geometry">
                        <mxRectangle width="60" height="40" as="alternateBounds"/>
                    </mxGeometry>
                </mxCell>
                <mxCell id="H97n-G6GHY3fc7BMN22Z-9" value="" style="shape=partialRectangle;html=1;whiteSpace=wrap;connectable=0;overflow=hidden;fillColor=none;top=0;left=0;bottom=0;right=0;pointerEvents=1;" vertex="1" parent="H97n-G6GHY3fc7BMN22Z-7">
                    <mxGeometry x="60" width="60" height="40" as="geometry">
                        <mxRectangle width="60" height="40" as="alternateBounds"/>
                    </mxGeometry>
                </mxCell>
                <mxCell id="H97n-G6GHY3fc7BMN22Z-10" value="" style="shape=partialRectangle;html=1;whiteSpace=wrap;connectable=0;overflow=hidden;fillColor=none;top=0;left=0;bottom=0;right=0;pointerEvents=1;" vertex="1" parent="H97n-G6GHY3fc7BMN22Z-7">
                    <mxGeometry x="120" width="60" height="40" as="geometry">
                        <mxRectangle width="60" height="40" as="alternateBounds"/>
                    </mxGeometry>
                </mxCell>
                <mxCell id="H97n-G6GHY3fc7BMN22Z-11" value="" style="shape=partialRectangle;html=1;whiteSpace=wrap;connectable=0;overflow=hidden;fillColor=none;top=0;left=0;bottom=0;right=0;pointerEvents=1;" vertex="1" parent="H97n-G6GHY3fc7BMN22Z-7">
                    <mxGeometry x="180" width="60" height="40" as="geometry">
                        <mxRectangle width="60" height="40" as="alternateBounds"/>
                    </mxGeometry>
                </mxCell>
                <mxCell id="H97n-G6GHY3fc7BMN22Z-12" value="" style="shape=partialRectangle;html=1;whiteSpace=wrap;connectable=0;overflow=hidden;fillColor=none;top=0;left=0;bottom=0;right=0;pointerEvents=1;" vertex="1" parent="H97n-G6GHY3fc7BMN22Z-7">
                    <mxGeometry x="240" width="60" height="40" as="geometry">
                        <mxRectangle width="60" height="40" as="alternateBounds"/>
                    </mxGeometry>
                </mxCell>
                <mxCell id="H97n-G6GHY3fc7BMN22Z-13" value="" style="shape=partialRectangle;collapsible=0;dropTarget=0;pointerEvents=0;fillColor=none;top=0;left=0;bottom=0;right=0;points=[[0,0.5],[1,0.5]];portConstraint=eastwest;" vertex="1" parent="H97n-G6GHY3fc7BMN22Z-0">
                    <mxGeometry y="80" width="300" height="40" as="geometry"/>
                </mxCell>
                <mxCell id="H97n-G6GHY3fc7BMN22Z-14" value="" style="shape=partialRectangle;html=1;whiteSpace=wrap;connectable=0;overflow=hidden;fillColor=none;top=0;left=0;bottom=0;right=0;pointerEvents=1;" vertex="1" parent="H97n-G6GHY3fc7BMN22Z-13">
                    <mxGeometry width="60" height="40" as="geometry">
                        <mxRectangle width="60" height="40" as="alternateBounds"/>
                    </mxGeometry>
                </mxCell>
                <mxCell id="H97n-G6GHY3fc7BMN22Z-15" value="" style="shape=partialRectangle;html=1;whiteSpace=wrap;connectable=0;overflow=hidden;fillColor=none;top=0;left=0;bottom=0;right=0;pointerEvents=1;" vertex="1" parent="H97n-G6GHY3fc7BMN22Z-13">
                    <mxGeometry x="60" width="60" height="40" as="geometry">
                        <mxRectangle width="60" height="40" as="alternateBounds"/>
                    </mxGeometry>
                </mxCell>
                <mxCell id="H97n-G6GHY3fc7BMN22Z-16" value="" style="shape=partialRectangle;html=1;whiteSpace=wrap;connectable=0;overflow=hidden;fillColor=none;top=0;left=0;bottom=0;right=0;pointerEvents=1;" vertex="1" parent="H97n-G6GHY3fc7BMN22Z-13">
                    <mxGeometry x="120" width="60" height="40" as="geometry">
                        <mxRectangle width="60" height="40" as="alternateBounds"/>
                    </mxGeometry>
                </mxCell>
                <mxCell id="H97n-G6GHY3fc7BMN22Z-17" value="" style="shape=partialRectangle;html=1;whiteSpace=wrap;connectable=0;overflow=hidden;fillColor=none;top=0;left=0;bottom=0;right=0;pointerEvents=1;" vertex="1" parent="H97n-G6GHY3fc7BMN22Z-13">
                    <mxGeometry x="180" width="60" height="40" as="geometry">
                        <mxRectangle width="60" height="40" as="alternateBounds"/>
                    </mxGeometry>
                </mxCell>
                <mxCell id="H97n-G6GHY3fc7BMN22Z-18" value="" style="shape=partialRectangle;html=1;whiteSpace=wrap;connectable=0;overflow=hidden;fillColor=none;top=0;left=0;bottom=0;right=0;pointerEvents=1;" vertex="1" parent="H97n-G6GHY3fc7BMN22Z-13">
                    <mxGeometry x="240" width="60" height="40" as="geometry">
                        <mxRectangle width="60" height="40" as="alternateBounds"/>
                    </mxGeometry>
                </mxCell>
                <mxCell id="H97n-G6GHY3fc7BMN22Z-19" value="" style="shape=partialRectangle;collapsible=0;dropTarget=0;pointerEvents=0;fillColor=none;top=0;left=0;bottom=0;right=0;points=[[0,0.5],[1,0.5]];portConstraint=eastwest;" vertex="1" parent="H97n-G6GHY3fc7BMN22Z-0">
                    <mxGeometry y="120" width="300" height="40" as="geometry"/>
                </mxCell>
                <mxCell id="H97n-G6GHY3fc7BMN22Z-20" value="" style="shape=partialRectangle;html=1;whiteSpace=wrap;connectable=0;overflow=hidden;fillColor=none;top=0;left=0;bottom=0;right=0;pointerEvents=1;" vertex="1" parent="H97n-G6GHY3fc7BMN22Z-19">
                    <mxGeometry width="60" height="40" as="geometry">
                        <mxRectangle width="60" height="40" as="alternateBounds"/>
                    </mxGeometry>
                </mxCell>
                <mxCell id="H97n-G6GHY3fc7BMN22Z-21" value="" style="shape=partialRectangle;html=1;whiteSpace=wrap;connectable=0;overflow=hidden;fillColor=none;top=0;left=0;bottom=0;right=0;pointerEvents=1;" vertex="1" parent="H97n-G6GHY3fc7BMN22Z-19">
                    <mxGeometry x="60" width="60" height="40" as="geometry">
                        <mxRectangle width="60" height="40" as="alternateBounds"/>
                    </mxGeometry>
                </mxCell>
                <mxCell id="H97n-G6GHY3fc7BMN22Z-22" value="" style="shape=partialRectangle;html=1;whiteSpace=wrap;connectable=0;overflow=hidden;fillColor=none;top=0;left=0;bottom=0;right=0;pointerEvents=1;" vertex="1" parent="H97n-G6GHY3fc7BMN22Z-19">
                    <mxGeometry x="120" width="60" height="40" as="geometry">
                        <mxRectangle width="60" height="40" as="alternateBounds"/>
                    </mxGeometry>
                </mxCell>
                <mxCell id="H97n-G6GHY3fc7BMN22Z-23" value="" style="shape=partialRectangle;html=1;whiteSpace=wrap;connectable=0;overflow=hidden;fillColor=none;top=0;left=0;bottom=0;right=0;pointerEvents=1;" vertex="1" parent="H97n-G6GHY3fc7BMN22Z-19">
                    <mxGeometry x="180" width="60" height="40" as="geometry">
                        <mxRectangle width="60" height="40" as="alternateBounds"/>
                    </mxGeometry>
                </mxCell>
                <mxCell id="H97n-G6GHY3fc7BMN22Z-24" value="" style="shape=partialRectangle;html=1;whiteSpace=wrap;connectable=0;overflow=hidden;fillColor=none;top=0;left=0;bottom=0;right=0;pointerEvents=1;" vertex="1" parent="H97n-G6GHY3fc7BMN22Z-19">
                    <mxGeometry x="240" width="60" height="40" as="geometry">
                        <mxRectangle width="60" height="40" as="alternateBounds"/>
                    </mxGeometry>
                </mxCell>
                <mxCell id="H97n-G6GHY3fc7BMN22Z-25" value="" style="shape=partialRectangle;collapsible=0;dropTarget=0;pointerEvents=0;fillColor=none;top=0;left=0;bottom=0;right=0;points=[[0,0.5],[1,0.5]];portConstraint=eastwest;" vertex="1" parent="H97n-G6GHY3fc7BMN22Z-0">
                    <mxGeometry y="160" width="300" height="40" as="geometry"/>
                </mxCell>
                <mxCell id="H97n-G6GHY3fc7BMN22Z-26" value="" style="shape=partialRectangle;html=1;whiteSpace=wrap;connectable=0;overflow=hidden;fillColor=none;top=0;left=0;bottom=0;right=0;pointerEvents=1;" vertex="1" parent="H97n-G6GHY3fc7BMN22Z-25">
                    <mxGeometry width="60" height="40" as="geometry">
                        <mxRectangle width="60" height="40" as="alternateBounds"/>
                    </mxGeometry>
                </mxCell>
                <mxCell id="H97n-G6GHY3fc7BMN22Z-27" value="" style="shape=partialRectangle;html=1;whiteSpace=wrap;connectable=0;overflow=hidden;fillColor=none;top=0;left=0;bottom=0;right=0;pointerEvents=1;" vertex="1" parent="H97n-G6GHY3fc7BMN22Z-25">
                    <mxGeometry x="60" width="60" height="40" as="geometry">
                        <mxRectangle width="60" height="40" as="alternateBounds"/>
                    </mxGeometry>
                </mxCell>
                <mxCell id="H97n-G6GHY3fc7BMN22Z-28" value="" style="shape=partialRectangle;html=1;whiteSpace=wrap;connectable=0;overflow=hidden;fillColor=none;top=0;left=0;bottom=0;right=0;pointerEvents=1;" vertex="1" parent="H97n-G6GHY3fc7BMN22Z-25">
                    <mxGeometry x="120" width="60" height="40" as="geometry">
                        <mxRectangle width="60" height="40" as="alternateBounds"/>
                    </mxGeometry>
                </mxCell>
                <mxCell id="H97n-G6GHY3fc7BMN22Z-29" value="" style="shape=partialRectangle;html=1;whiteSpace=wrap;connectable=0;overflow=hidden;fillColor=none;top=0;left=0;bottom=0;right=0;pointerEvents=1;" vertex="1" parent="H97n-G6GHY3fc7BMN22Z-25">
                    <mxGeometry x="180" width="60" height="40" as="geometry">
                        <mxRectangle width="60" height="40" as="alternateBounds"/>
                    </mxGeometry>
                </mxCell>
                <mxCell id="H97n-G6GHY3fc7BMN22Z-30" value="" style="shape=partialRectangle;html=1;whiteSpace=wrap;connectable=0;overflow=hidden;fillColor=none;top=0;left=0;bottom=0;right=0;pointerEvents=1;" vertex="1" parent="H97n-G6GHY3fc7BMN22Z-25">
                    <mxGeometry x="240" width="60" height="40" as="geometry">
                        <mxRectangle width="60" height="40" as="alternateBounds"/>
                    </mxGeometry>
                </mxCell>
                <mxCell id="H97n-G6GHY3fc7BMN22Z-31" value="" style="shape=partialRectangle;collapsible=0;dropTarget=0;pointerEvents=0;fillColor=none;top=0;left=0;bottom=0;right=0;points=[[0,0.5],[1,0.5]];portConstraint=eastwest;" vertex="1" parent="H97n-G6GHY3fc7BMN22Z-0">
                    <mxGeometry y="200" width="300" height="40" as="geometry"/>
                </mxCell>
                <mxCell id="H97n-G6GHY3fc7BMN22Z-32" value="" style="shape=partialRectangle;html=1;whiteSpace=wrap;connectable=0;overflow=hidden;fillColor=none;top=0;left=0;bottom=0;right=0;pointerEvents=1;" vertex="1" parent="H97n-G6GHY3fc7BMN22Z-31">
                    <mxGeometry width="60" height="40" as="geometry">
                        <mxRectangle width="60" height="40" as="alternateBounds"/>
                    </mxGeometry>
                </mxCell>
                <mxCell id="H97n-G6GHY3fc7BMN22Z-33" value="" style="shape=partialRectangle;html=1;whiteSpace=wrap;connectable=0;overflow=hidden;fillColor=none;top=0;left=0;bottom=0;right=0;pointerEvents=1;" vertex="1" parent="H97n-G6GHY3fc7BMN22Z-31">
                    <mxGeometry x="60" width="60" height="40" as="geometry">
                        <mxRectangle width="60" height="40" as="alternateBounds"/>
                    </mxGeometry>
                </mxCell>
                <mxCell id="H97n-G6GHY3fc7BMN22Z-34" value="" style="shape=partialRectangle;html=1;whiteSpace=wrap;connectable=0;overflow=hidden;fillColor=none;top=0;left=0;bottom=0;right=0;pointerEvents=1;" vertex="1" parent="H97n-G6GHY3fc7BMN22Z-31">
                    <mxGeometry x="120" width="60" height="40" as="geometry">
                        <mxRectangle width="60" height="40" as="alternateBounds"/>
                    </mxGeometry>
                </mxCell>
                <mxCell id="H97n-G6GHY3fc7BMN22Z-35" value="" style="shape=partialRectangle;html=1;whiteSpace=wrap;connectable=0;overflow=hidden;fillColor=none;top=0;left=0;bottom=0;right=0;pointerEvents=1;" vertex="1" parent="H97n-G6GHY3fc7BMN22Z-31">
                    <mxGeometry x="180" width="60" height="40" as="geometry">
                        <mxRectangle width="60" height="40" as="alternateBounds"/>
                    </mxGeometry>
                </mxCell>
                <mxCell id="H97n-G6GHY3fc7BMN22Z-36" value="" style="shape=partialRectangle;html=1;whiteSpace=wrap;connectable=0;overflow=hidden;fillColor=none;top=0;left=0;bottom=0;right=0;pointerEvents=1;" vertex="1" parent="H97n-G6GHY3fc7BMN22Z-31">
                    <mxGeometry x="240" width="60" height="40" as="geometry">
                        <mxRectangle width="60" height="40" as="alternateBounds"/>
                    </mxGeometry>
                </mxCell>
                <mxCell id="H97n-G6GHY3fc7BMN22Z-37" value="" style="shape=partialRectangle;collapsible=0;dropTarget=0;pointerEvents=0;fillColor=none;top=0;left=0;bottom=0;right=0;points=[[0,0.5],[1,0.5]];portConstraint=eastwest;" vertex="1" parent="H97n-G6GHY3fc7BMN22Z-0">
                    <mxGeometry y="240" width="300" height="40" as="geometry"/>
                </mxCell>
                <mxCell id="H97n-G6GHY3fc7BMN22Z-38" value="" style="shape=partialRectangle;html=1;whiteSpace=wrap;connectable=0;overflow=hidden;fillColor=none;top=0;left=0;bottom=0;right=0;pointerEvents=1;" vertex="1" parent="H97n-G6GHY3fc7BMN22Z-37">
                    <mxGeometry width="60" height="40" as="geometry">
                        <mxRectangle width="60" height="40" as="alternateBounds"/>
                    </mxGeometry>
                </mxCell>
                <mxCell id="H97n-G6GHY3fc7BMN22Z-39" value="" style="shape=partialRectangle;html=1;whiteSpace=wrap;connectable=0;overflow=hidden;fillColor=none;top=0;left=0;bottom=0;right=0;pointerEvents=1;" vertex="1" parent="H97n-G6GHY3fc7BMN22Z-37">
                    <mxGeometry x="60" width="60" height="40" as="geometry">
                        <mxRectangle width="60" height="40" as="alternateBounds"/>
                    </mxGeometry>
                </mxCell>
                <mxCell id="H97n-G6GHY3fc7BMN22Z-40" value="" style="shape=partialRectangle;html=1;whiteSpace=wrap;connectable=0;overflow=hidden;fillColor=none;top=0;left=0;bottom=0;right=0;pointerEvents=1;" vertex="1" parent="H97n-G6GHY3fc7BMN22Z-37">
                    <mxGeometry x="120" width="60" height="40" as="geometry">
                        <mxRectangle width="60" height="40" as="alternateBounds"/>
                    </mxGeometry>
                </mxCell>
                <mxCell id="H97n-G6GHY3fc7BMN22Z-41" value="" style="shape=partialRectangle;html=1;whiteSpace=wrap;connectable=0;overflow=hidden;fillColor=none;top=0;left=0;bottom=0;right=0;pointerEvents=1;" vertex="1" parent="H97n-G6GHY3fc7BMN22Z-37">
                    <mxGeometry x="180" width="60" height="40" as="geometry">
                        <mxRectangle width="60" height="40" as="alternateBounds"/>
                    </mxGeometry>
                </mxCell>
                <mxCell id="H97n-G6GHY3fc7BMN22Z-42" value="" style="shape=partialRectangle;html=1;whiteSpace=wrap;connectable=0;overflow=hidden;fillColor=none;top=0;left=0;bottom=0;right=0;pointerEvents=1;" vertex="1" parent="H97n-G6GHY3fc7BMN22Z-37">
                    <mxGeometry x="240" width="60" height="40" as="geometry">
                        <mxRectangle width="60" height="40" as="alternateBounds"/>
                    </mxGeometry>
                </mxCell>
                <mxCell id="H97n-G6GHY3fc7BMN22Z-43" value="" style="shape=partialRectangle;collapsible=0;dropTarget=0;pointerEvents=0;fillColor=none;top=0;left=0;bottom=0;right=0;points=[[0,0.5],[1,0.5]];portConstraint=eastwest;" vertex="1" parent="H97n-G6GHY3fc7BMN22Z-0">
                    <mxGeometry y="280" width="300" height="40" as="geometry"/>
                </mxCell>
                <mxCell id="H97n-G6GHY3fc7BMN22Z-44" value="" style="shape=partialRectangle;html=1;whiteSpace=wrap;connectable=0;overflow=hidden;fillColor=none;top=0;left=0;bottom=0;right=0;pointerEvents=1;" vertex="1" parent="H97n-G6GHY3fc7BMN22Z-43">
                    <mxGeometry width="60" height="40" as="geometry">
                        <mxRectangle width="60" height="40" as="alternateBounds"/>
                    </mxGeometry>
                </mxCell>
                <mxCell id="H97n-G6GHY3fc7BMN22Z-45" value="" style="shape=partialRectangle;html=1;whiteSpace=wrap;connectable=0;overflow=hidden;fillColor=none;top=0;left=0;bottom=0;right=0;pointerEvents=1;" vertex="1" parent="H97n-G6GHY3fc7BMN22Z-43">
                    <mxGeometry x="60" width="60" height="40" as="geometry">
                        <mxRectangle width="60" height="40" as="alternateBounds"/>
                    </mxGeometry>
                </mxCell>
                <mxCell id="H97n-G6GHY3fc7BMN22Z-46" value="" style="shape=partialRectangle;html=1;whiteSpace=wrap;connectable=0;overflow=hidden;fillColor=none;top=0;left=0;bottom=0;right=0;pointerEvents=1;" vertex="1" parent="H97n-G6GHY3fc7BMN22Z-43">
                    <mxGeometry x="120" width="60" height="40" as="geometry">
                        <mxRectangle width="60" height="40" as="alternateBounds"/>
                    </mxGeometry>
                </mxCell>
                <mxCell id="H97n-G6GHY3fc7BMN22Z-47" value="" style="shape=partialRectangle;html=1;whiteSpace=wrap;connectable=0;overflow=hidden;fillColor=none;top=0;left=0;bottom=0;right=0;pointerEvents=1;" vertex="1" parent="H97n-G6GHY3fc7BMN22Z-43">
                    <mxGeometry x="180" width="60" height="40" as="geometry">
                        <mxRectangle width="60" height="40" as="alternateBounds"/>
                    </mxGeometry>
                </mxCell>
                <mxCell id="H97n-G6GHY3fc7BMN22Z-48" value="" style="shape=partialRectangle;html=1;whiteSpace=wrap;connectable=0;overflow=hidden;fillColor=none;top=0;left=0;bottom=0;right=0;pointerEvents=1;" vertex="1" parent="H97n-G6GHY3fc7BMN22Z-43">
                    <mxGeometry x="240" width="60" height="40" as="geometry">
                        <mxRectangle width="60" height="40" as="alternateBounds"/>
                    </mxGeometry>
                </mxCell>
                <mxCell id="H97n-G6GHY3fc7BMN22Z-49" value="" style="shape=partialRectangle;collapsible=0;dropTarget=0;pointerEvents=0;fillColor=none;top=0;left=0;bottom=0;right=0;points=[[0,0.5],[1,0.5]];portConstraint=eastwest;" vertex="1" parent="H97n-G6GHY3fc7BMN22Z-0">
                    <mxGeometry y="320" width="300" height="40" as="geometry"/>
                </mxCell>
                <mxCell id="H97n-G6GHY3fc7BMN22Z-50" value="" style="shape=partialRectangle;html=1;whiteSpace=wrap;connectable=0;overflow=hidden;fillColor=none;top=0;left=0;bottom=0;right=0;pointerEvents=1;" vertex="1" parent="H97n-G6GHY3fc7BMN22Z-49">
                    <mxGeometry width="60" height="40" as="geometry">
                        <mxRectangle width="60" height="40" as="alternateBounds"/>
                    </mxGeometry>
                </mxCell>
                <mxCell id="H97n-G6GHY3fc7BMN22Z-51" value="" style="shape=partialRectangle;html=1;whiteSpace=wrap;connectable=0;overflow=hidden;fillColor=none;top=0;left=0;bottom=0;right=0;pointerEvents=1;" vertex="1" parent="H97n-G6GHY3fc7BMN22Z-49">
                    <mxGeometry x="60" width="60" height="40" as="geometry">
                        <mxRectangle width="60" height="40" as="alternateBounds"/>
                    </mxGeometry>
                </mxCell>
                <mxCell id="H97n-G6GHY3fc7BMN22Z-52" value="" style="shape=partialRectangle;html=1;whiteSpace=wrap;connectable=0;overflow=hidden;fillColor=none;top=0;left=0;bottom=0;right=0;pointerEvents=1;" vertex="1" parent="H97n-G6GHY3fc7BMN22Z-49">
                    <mxGeometry x="120" width="60" height="40" as="geometry">
                        <mxRectangle width="60" height="40" as="alternateBounds"/>
                    </mxGeometry>
                </mxCell>
                <mxCell id="H97n-G6GHY3fc7BMN22Z-53" value="" style="shape=partialRectangle;html=1;whiteSpace=wrap;connectable=0;overflow=hidden;fillColor=none;top=0;left=0;bottom=0;right=0;pointerEvents=1;" vertex="1" parent="H97n-G6GHY3fc7BMN22Z-49">
                    <mxGeometry x="180" width="60" height="40" as="geometry">
                        <mxRectangle width="60" height="40" as="alternateBounds"/>
                    </mxGeometry>
                </mxCell>
                <mxCell id="H97n-G6GHY3fc7BMN22Z-54" value="" style="shape=partialRectangle;html=1;whiteSpace=wrap;connectable=0;overflow=hidden;fillColor=none;top=0;left=0;bottom=0;right=0;pointerEvents=1;" vertex="1" parent="H97n-G6GHY3fc7BMN22Z-49">
                    <mxGeometry x="240" width="60" height="40" as="geometry">
                        <mxRectangle width="60" height="40" as="alternateBounds"/>
                    </mxGeometry>
                </mxCell>
                <mxCell id="H97n-G6GHY3fc7BMN22Z-55" value="" style="shape=partialRectangle;collapsible=0;dropTarget=0;pointerEvents=0;fillColor=none;top=0;left=0;bottom=0;right=0;points=[[0,0.5],[1,0.5]];portConstraint=eastwest;" vertex="1" parent="H97n-G6GHY3fc7BMN22Z-0">
                    <mxGeometry y="360" width="300" height="40" as="geometry"/>
                </mxCell>
                <mxCell id="H97n-G6GHY3fc7BMN22Z-56" value="" style="shape=partialRectangle;html=1;whiteSpace=wrap;connectable=0;overflow=hidden;fillColor=none;top=0;left=0;bottom=0;right=0;pointerEvents=1;" vertex="1" parent="H97n-G6GHY3fc7BMN22Z-55">
                    <mxGeometry width="60" height="40" as="geometry">
                        <mxRectangle width="60" height="40" as="alternateBounds"/>
                    </mxGeometry>
                </mxCell>
                <mxCell id="H97n-G6GHY3fc7BMN22Z-57" value="" style="shape=partialRectangle;html=1;whiteSpace=wrap;connectable=0;overflow=hidden;fillColor=none;top=0;left=0;bottom=0;right=0;pointerEvents=1;" vertex="1" parent="H97n-G6GHY3fc7BMN22Z-55">
                    <mxGeometry x="60" width="60" height="40" as="geometry">
                        <mxRectangle width="60" height="40" as="alternateBounds"/>
                    </mxGeometry>
                </mxCell>
                <mxCell id="H97n-G6GHY3fc7BMN22Z-58" value="" style="shape=partialRectangle;html=1;whiteSpace=wrap;connectable=0;overflow=hidden;fillColor=none;top=0;left=0;bottom=0;right=0;pointerEvents=1;" vertex="1" parent="H97n-G6GHY3fc7BMN22Z-55">
                    <mxGeometry x="120" width="60" height="40" as="geometry">
                        <mxRectangle width="60" height="40" as="alternateBounds"/>
                    </mxGeometry>
                </mxCell>
                <mxCell id="H97n-G6GHY3fc7BMN22Z-59" value="" style="shape=partialRectangle;html=1;whiteSpace=wrap;connectable=0;overflow=hidden;fillColor=none;top=0;left=0;bottom=0;right=0;pointerEvents=1;" vertex="1" parent="H97n-G6GHY3fc7BMN22Z-55">
                    <mxGeometry x="180" width="60" height="40" as="geometry">
                        <mxRectangle width="60" height="40" as="alternateBounds"/>
                    </mxGeometry>
                </mxCell>
                <mxCell id="H97n-G6GHY3fc7BMN22Z-60" value="" style="shape=partialRectangle;html=1;whiteSpace=wrap;connectable=0;overflow=hidden;fillColor=none;top=0;left=0;bottom=0;right=0;pointerEvents=1;" vertex="1" parent="H97n-G6GHY3fc7BMN22Z-55">
                    <mxGeometry x="240" width="60" height="40" as="geometry">
                        <mxRectangle width="60" height="40" as="alternateBounds"/>
                    </mxGeometry>
                </mxCell>
                <mxCell id="H97n-G6GHY3fc7BMN22Z-61" value="" style="shape=partialRectangle;collapsible=0;dropTarget=0;pointerEvents=0;fillColor=none;top=0;left=0;bottom=0;right=0;points=[[0,0.5],[1,0.5]];portConstraint=eastwest;" vertex="1" parent="H97n-G6GHY3fc7BMN22Z-0">
                    <mxGeometry y="400" width="300" height="40" as="geometry"/>
                </mxCell>
                <mxCell id="H97n-G6GHY3fc7BMN22Z-62" value="" style="shape=partialRectangle;html=1;whiteSpace=wrap;connectable=0;overflow=hidden;fillColor=none;top=0;left=0;bottom=0;right=0;pointerEvents=1;" vertex="1" parent="H97n-G6GHY3fc7BMN22Z-61">
                    <mxGeometry width="60" height="40" as="geometry">
                        <mxRectangle width="60" height="40" as="alternateBounds"/>
                    </mxGeometry>
                </mxCell>
                <mxCell id="H97n-G6GHY3fc7BMN22Z-63" value="" style="shape=partialRectangle;html=1;whiteSpace=wrap;connectable=0;overflow=hidden;fillColor=none;top=0;left=0;bottom=0;right=0;pointerEvents=1;" vertex="1" parent="H97n-G6GHY3fc7BMN22Z-61">
                    <mxGeometry x="60" width="60" height="40" as="geometry">
                        <mxRectangle width="60" height="40" as="alternateBounds"/>
                    </mxGeometry>
                </mxCell>
                <mxCell id="H97n-G6GHY3fc7BMN22Z-64" value="" style="shape=partialRectangle;html=1;whiteSpace=wrap;connectable=0;overflow=hidden;fillColor=none;top=0;left=0;bottom=0;right=0;pointerEvents=1;" vertex="1" parent="H97n-G6GHY3fc7BMN22Z-61">
                    <mxGeometry x="120" width="60" height="40" as="geometry">
                        <mxRectangle width="60" height="40" as="alternateBounds"/>
                    </mxGeometry>
                </mxCell>
                <mxCell id="H97n-G6GHY3fc7BMN22Z-65" value="" style="shape=partialRectangle;html=1;whiteSpace=wrap;connectable=0;overflow=hidden;fillColor=none;top=0;left=0;bottom=0;right=0;pointerEvents=1;" vertex="1" parent="H97n-G6GHY3fc7BMN22Z-61">
                    <mxGeometry x="180" width="60" height="40" as="geometry">
                        <mxRectangle width="60" height="40" as="alternateBounds"/>
                    </mxGeometry>
                </mxCell>
                <mxCell id="H97n-G6GHY3fc7BMN22Z-66" value="" style="shape=partialRectangle;html=1;whiteSpace=wrap;connectable=0;overflow=hidden;fillColor=none;top=0;left=0;bottom=0;right=0;pointerEvents=1;" vertex="1" parent="H97n-G6GHY3fc7BMN22Z-61">
                    <mxGeometry x="240" width="60" height="40" as="geometry">
                        <mxRectangle width="60" height="40" as="alternateBounds"/>
                    </mxGeometry>
                </mxCell>
                <mxCell id="H97n-G6GHY3fc7BMN22Z-67" value="" style="shape=partialRectangle;collapsible=0;dropTarget=0;pointerEvents=0;fillColor=none;top=0;left=0;bottom=0;right=0;points=[[0,0.5],[1,0.5]];portConstraint=eastwest;" vertex="1" parent="H97n-G6GHY3fc7BMN22Z-0">
                    <mxGeometry y="440" width="300" height="40" as="geometry"/>
                </mxCell>
                <mxCell id="H97n-G6GHY3fc7BMN22Z-68" value="" style="shape=partialRectangle;html=1;whiteSpace=wrap;connectable=0;overflow=hidden;fillColor=none;top=0;left=0;bottom=0;right=0;pointerEvents=1;" vertex="1" parent="H97n-G6GHY3fc7BMN22Z-67">
                    <mxGeometry width="60" height="40" as="geometry">
                        <mxRectangle width="60" height="40" as="alternateBounds"/>
                    </mxGeometry>
                </mxCell>
                <mxCell id="H97n-G6GHY3fc7BMN22Z-69" value="" style="shape=partialRectangle;html=1;whiteSpace=wrap;connectable=0;overflow=hidden;fillColor=none;top=0;left=0;bottom=0;right=0;pointerEvents=1;" vertex="1" parent="H97n-G6GHY3fc7BMN22Z-67">
                    <mxGeometry x="60" width="60" height="40" as="geometry">
                        <mxRectangle width="60" height="40" as="alternateBounds"/>
                    </mxGeometry>
                </mxCell>
                <mxCell id="H97n-G6GHY3fc7BMN22Z-70" value="" style="shape=partialRectangle;html=1;whiteSpace=wrap;connectable=0;overflow=hidden;fillColor=none;top=0;left=0;bottom=0;right=0;pointerEvents=1;" vertex="1" parent="H97n-G6GHY3fc7BMN22Z-67">
                    <mxGeometry x="120" width="60" height="40" as="geometry">
                        <mxRectangle width="60" height="40" as="alternateBounds"/>
                    </mxGeometry>
                </mxCell>
                <mxCell id="H97n-G6GHY3fc7BMN22Z-71" value="" style="shape=partialRectangle;html=1;whiteSpace=wrap;connectable=0;overflow=hidden;fillColor=none;top=0;left=0;bottom=0;right=0;pointerEvents=1;" vertex="1" parent="H97n-G6GHY3fc7BMN22Z-67">
                    <mxGeometry x="180" width="60" height="40" as="geometry">
                        <mxRectangle width="60" height="40" as="alternateBounds"/>
                    </mxGeometry>
                </mxCell>
                <mxCell id="H97n-G6GHY3fc7BMN22Z-72" value="" style="shape=partialRectangle;html=1;whiteSpace=wrap;connectable=0;overflow=hidden;fillColor=none;top=0;left=0;bottom=0;right=0;pointerEvents=1;" vertex="1" parent="H97n-G6GHY3fc7BMN22Z-67">
                    <mxGeometry x="240" width="60" height="40" as="geometry">
                        <mxRectangle width="60" height="40" as="alternateBounds"/>
                    </mxGeometry>
                </mxCell>
                <mxCell id="H97n-G6GHY3fc7BMN22Z-73" value="" style="shape=partialRectangle;collapsible=0;dropTarget=0;pointerEvents=0;fillColor=none;top=0;left=0;bottom=0;right=0;points=[[0,0.5],[1,0.5]];portConstraint=eastwest;" vertex="1" parent="H97n-G6GHY3fc7BMN22Z-0">
                    <mxGeometry y="480" width="300" height="40" as="geometry"/>
                </mxCell>
                <mxCell id="H97n-G6GHY3fc7BMN22Z-74" value="" style="shape=partialRectangle;html=1;whiteSpace=wrap;connectable=0;overflow=hidden;fillColor=none;top=0;left=0;bottom=0;right=0;pointerEvents=1;" vertex="1" parent="H97n-G6GHY3fc7BMN22Z-73">
                    <mxGeometry width="60" height="40" as="geometry">
                        <mxRectangle width="60" height="40" as="alternateBounds"/>
                    </mxGeometry>
                </mxCell>
                <mxCell id="H97n-G6GHY3fc7BMN22Z-75" value="" style="shape=partialRectangle;html=1;whiteSpace=wrap;connectable=0;overflow=hidden;fillColor=none;top=0;left=0;bottom=0;right=0;pointerEvents=1;" vertex="1" parent="H97n-G6GHY3fc7BMN22Z-73">
                    <mxGeometry x="60" width="60" height="40" as="geometry">
                        <mxRectangle width="60" height="40" as="alternateBounds"/>
                    </mxGeometry>
                </mxCell>
                <mxCell id="H97n-G6GHY3fc7BMN22Z-76" value="" style="shape=partialRectangle;html=1;whiteSpace=wrap;connectable=0;overflow=hidden;fillColor=none;top=0;left=0;bottom=0;right=0;pointerEvents=1;" vertex="1" parent="H97n-G6GHY3fc7BMN22Z-73">
                    <mxGeometry x="120" width="60" height="40" as="geometry">
                        <mxRectangle width="60" height="40" as="alternateBounds"/>
                    </mxGeometry>
                </mxCell>
                <mxCell id="H97n-G6GHY3fc7BMN22Z-77" value="" style="shape=partialRectangle;html=1;whiteSpace=wrap;connectable=0;overflow=hidden;fillColor=none;top=0;left=0;bottom=0;right=0;pointerEvents=1;" vertex="1" parent="H97n-G6GHY3fc7BMN22Z-73">
                    <mxGeometry x="180" width="60" height="40" as="geometry">
                        <mxRectangle width="60" height="40" as="alternateBounds"/>
                    </mxGeometry>
                </mxCell>
                <mxCell id="H97n-G6GHY3fc7BMN22Z-78" value="" style="shape=partialRectangle;html=1;whiteSpace=wrap;connectable=0;overflow=hidden;fillColor=none;top=0;left=0;bottom=0;right=0;pointerEvents=1;" vertex="1" parent="H97n-G6GHY3fc7BMN22Z-73">
                    <mxGeometry x="240" width="60" height="40" as="geometry">
                        <mxRectangle width="60" height="40" as="alternateBounds"/>
                    </mxGeometry>
                </mxCell>
                <mxCell id="H97n-G6GHY3fc7BMN22Z-79" value="" style="shape=partialRectangle;collapsible=0;dropTarget=0;pointerEvents=0;fillColor=none;top=0;left=0;bottom=0;right=0;points=[[0,0.5],[1,0.5]];portConstraint=eastwest;" vertex="1" parent="H97n-G6GHY3fc7BMN22Z-0">
                    <mxGeometry y="520" width="300" height="40" as="geometry"/>
                </mxCell>
                <mxCell id="H97n-G6GHY3fc7BMN22Z-80" value="" style="shape=partialRectangle;html=1;whiteSpace=wrap;connectable=0;overflow=hidden;fillColor=none;top=0;left=0;bottom=0;right=0;pointerEvents=1;" vertex="1" parent="H97n-G6GHY3fc7BMN22Z-79">
                    <mxGeometry width="60" height="40" as="geometry">
                        <mxRectangle width="60" height="40" as="alternateBounds"/>
                    </mxGeometry>
                </mxCell>
                <mxCell id="H97n-G6GHY3fc7BMN22Z-81" value="" style="shape=partialRectangle;html=1;whiteSpace=wrap;connectable=0;overflow=hidden;fillColor=none;top=0;left=0;bottom=0;right=0;pointerEvents=1;" vertex="1" parent="H97n-G6GHY3fc7BMN22Z-79">
                    <mxGeometry x="60" width="60" height="40" as="geometry">
                        <mxRectangle width="60" height="40" as="alternateBounds"/>
                    </mxGeometry>
                </mxCell>
                <mxCell id="H97n-G6GHY3fc7BMN22Z-82" value="" style="shape=partialRectangle;html=1;whiteSpace=wrap;connectable=0;overflow=hidden;fillColor=none;top=0;left=0;bottom=0;right=0;pointerEvents=1;" vertex="1" parent="H97n-G6GHY3fc7BMN22Z-79">
                    <mxGeometry x="120" width="60" height="40" as="geometry">
                        <mxRectangle width="60" height="40" as="alternateBounds"/>
                    </mxGeometry>
                </mxCell>
                <mxCell id="H97n-G6GHY3fc7BMN22Z-83" value="" style="shape=partialRectangle;html=1;whiteSpace=wrap;connectable=0;overflow=hidden;fillColor=none;top=0;left=0;bottom=0;right=0;pointerEvents=1;" vertex="1" parent="H97n-G6GHY3fc7BMN22Z-79">
                    <mxGeometry x="180" width="60" height="40" as="geometry">
                        <mxRectangle width="60" height="40" as="alternateBounds"/>
                    </mxGeometry>
                </mxCell>
                <mxCell id="H97n-G6GHY3fc7BMN22Z-84" value="" style="shape=partialRectangle;html=1;whiteSpace=wrap;connectable=0;overflow=hidden;fillColor=none;top=0;left=0;bottom=0;right=0;pointerEvents=1;" vertex="1" parent="H97n-G6GHY3fc7BMN22Z-79">
                    <mxGeometry x="240" width="60" height="40" as="geometry">
                        <mxRectangle width="60" height="40" as="alternateBounds"/>
                    </mxGeometry>
                </mxCell>
                <mxCell id="H97n-G6GHY3fc7BMN22Z-85" value="" style="shape=partialRectangle;collapsible=0;dropTarget=0;pointerEvents=0;fillColor=none;top=0;left=0;bottom=0;right=0;points=[[0,0.5],[1,0.5]];portConstraint=eastwest;" vertex="1" parent="H97n-G6GHY3fc7BMN22Z-0">
                    <mxGeometry y="560" width="300" height="40" as="geometry"/>
                </mxCell>
                <mxCell id="H97n-G6GHY3fc7BMN22Z-86" value="" style="shape=partialRectangle;html=1;whiteSpace=wrap;connectable=0;overflow=hidden;fillColor=none;top=0;left=0;bottom=0;right=0;pointerEvents=1;" vertex="1" parent="H97n-G6GHY3fc7BMN22Z-85">
                    <mxGeometry width="60" height="40" as="geometry">
                        <mxRectangle width="60" height="40" as="alternateBounds"/>
                    </mxGeometry>
                </mxCell>
                <mxCell id="H97n-G6GHY3fc7BMN22Z-87" value="" style="shape=partialRectangle;html=1;whiteSpace=wrap;connectable=0;overflow=hidden;fillColor=none;top=0;left=0;bottom=0;right=0;pointerEvents=1;" vertex="1" parent="H97n-G6GHY3fc7BMN22Z-85">
                    <mxGeometry x="60" width="60" height="40" as="geometry">
                        <mxRectangle width="60" height="40" as="alternateBounds"/>
                    </mxGeometry>
                </mxCell>
                <mxCell id="H97n-G6GHY3fc7BMN22Z-88" value="" style="shape=partialRectangle;html=1;whiteSpace=wrap;connectable=0;overflow=hidden;fillColor=none;top=0;left=0;bottom=0;right=0;pointerEvents=1;" vertex="1" parent="H97n-G6GHY3fc7BMN22Z-85">
                    <mxGeometry x="120" width="60" height="40" as="geometry">
                        <mxRectangle width="60" height="40" as="alternateBounds"/>
                    </mxGeometry>
                </mxCell>
                <mxCell id="H97n-G6GHY3fc7BMN22Z-89" value="" style="shape=partialRectangle;html=1;whiteSpace=wrap;connectable=0;overflow=hidden;fillColor=none;top=0;left=0;bottom=0;right=0;pointerEvents=1;" vertex="1" parent="H97n-G6GHY3fc7BMN22Z-85">
                    <mxGeometry x="180" width="60" height="40" as="geometry">
                        <mxRectangle width="60" height="40" as="alternateBounds"/>
                    </mxGeometry>
                </mxCell>
                <mxCell id="H97n-G6GHY3fc7BMN22Z-90" value="" style="shape=partialRectangle;html=1;whiteSpace=wrap;connectable=0;overflow=hidden;fillColor=none;top=0;left=0;bottom=0;right=0;pointerEvents=1;" vertex="1" parent="H97n-G6GHY3fc7BMN22Z-85">
                    <mxGeometry x="240" width="60" height="40" as="geometry">
                        <mxRectangle width="60" height="40" as="alternateBounds"/>
                    </mxGeometry>
                </mxCell>
                <mxCell id="H97n-G6GHY3fc7BMN22Z-91" value="" style="shape=partialRectangle;collapsible=0;dropTarget=0;pointerEvents=0;fillColor=none;top=0;left=0;bottom=0;right=0;points=[[0,0.5],[1,0.5]];portConstraint=eastwest;" vertex="1" parent="H97n-G6GHY3fc7BMN22Z-0">
                    <mxGeometry y="600" width="300" height="40" as="geometry"/>
                </mxCell>
                <mxCell id="H97n-G6GHY3fc7BMN22Z-92" value="" style="shape=partialRectangle;html=1;whiteSpace=wrap;connectable=0;overflow=hidden;fillColor=none;top=0;left=0;bottom=0;right=0;pointerEvents=1;" vertex="1" parent="H97n-G6GHY3fc7BMN22Z-91">
                    <mxGeometry width="60" height="40" as="geometry">
                        <mxRectangle width="60" height="40" as="alternateBounds"/>
                    </mxGeometry>
                </mxCell>
                <mxCell id="H97n-G6GHY3fc7BMN22Z-93" value="" style="shape=partialRectangle;html=1;whiteSpace=wrap;connectable=0;overflow=hidden;fillColor=none;top=0;left=0;bottom=0;right=0;pointerEvents=1;" vertex="1" parent="H97n-G6GHY3fc7BMN22Z-91">
                    <mxGeometry x="60" width="60" height="40" as="geometry">
                        <mxRectangle width="60" height="40" as="alternateBounds"/>
                    </mxGeometry>
                </mxCell>
                <mxCell id="H97n-G6GHY3fc7BMN22Z-94" value="" style="shape=partialRectangle;html=1;whiteSpace=wrap;connectable=0;overflow=hidden;fillColor=none;top=0;left=0;bottom=0;right=0;pointerEvents=1;" vertex="1" parent="H97n-G6GHY3fc7BMN22Z-91">
                    <mxGeometry x="120" width="60" height="40" as="geometry">
                        <mxRectangle width="60" height="40" as="alternateBounds"/>
                    </mxGeometry>
                </mxCell>
                <mxCell id="H97n-G6GHY3fc7BMN22Z-95" value="" style="shape=partialRectangle;html=1;whiteSpace=wrap;connectable=0;overflow=hidden;fillColor=none;top=0;left=0;bottom=0;right=0;pointerEvents=1;" vertex="1" parent="H97n-G6GHY3fc7BMN22Z-91">
                    <mxGeometry x="180" width="60" height="40" as="geometry">
                        <mxRectangle width="60" height="40" as="alternateBounds"/>
                    </mxGeometry>
                </mxCell>
                <mxCell id="H97n-G6GHY3fc7BMN22Z-96" value="" style="shape=partialRectangle;html=1;whiteSpace=wrap;connectable=0;overflow=hidden;fillColor=none;top=0;left=0;bottom=0;right=0;pointerEvents=1;" vertex="1" parent="H97n-G6GHY3fc7BMN22Z-91">
                    <mxGeometry x="240" width="60" height="40" as="geometry">
                        <mxRectangle width="60" height="40" as="alternateBounds"/>
                    </mxGeometry>
                </mxCell>
                <mxCell id="H97n-G6GHY3fc7BMN22Z-97" value="" style="shape=partialRectangle;collapsible=0;dropTarget=0;pointerEvents=0;fillColor=none;top=0;left=0;bottom=0;right=0;points=[[0,0.5],[1,0.5]];portConstraint=eastwest;" vertex="1" parent="H97n-G6GHY3fc7BMN22Z-0">
                    <mxGeometry y="640" width="300" height="40" as="geometry"/>
                </mxCell>
                <mxCell id="H97n-G6GHY3fc7BMN22Z-98" value="" style="shape=partialRectangle;html=1;whiteSpace=wrap;connectable=0;overflow=hidden;fillColor=none;top=0;left=0;bottom=0;right=0;pointerEvents=1;" vertex="1" parent="H97n-G6GHY3fc7BMN22Z-97">
                    <mxGeometry width="60" height="40" as="geometry">
                        <mxRectangle width="60" height="40" as="alternateBounds"/>
                    </mxGeometry>
                </mxCell>
                <mxCell id="H97n-G6GHY3fc7BMN22Z-99" value="" style="shape=partialRectangle;html=1;whiteSpace=wrap;connectable=0;overflow=hidden;fillColor=none;top=0;left=0;bottom=0;right=0;pointerEvents=1;" vertex="1" parent="H97n-G6GHY3fc7BMN22Z-97">
                    <mxGeometry x="60" width="60" height="40" as="geometry">
                        <mxRectangle width="60" height="40" as="alternateBounds"/>
                    </mxGeometry>
                </mxCell>
                <mxCell id="H97n-G6GHY3fc7BMN22Z-100" value="" style="shape=partialRectangle;html=1;whiteSpace=wrap;connectable=0;overflow=hidden;fillColor=none;top=0;left=0;bottom=0;right=0;pointerEvents=1;" vertex="1" parent="H97n-G6GHY3fc7BMN22Z-97">
                    <mxGeometry x="120" width="60" height="40" as="geometry">
                        <mxRectangle width="60" height="40" as="alternateBounds"/>
                    </mxGeometry>
                </mxCell>
                <mxCell id="H97n-G6GHY3fc7BMN22Z-101" value="" style="shape=partialRectangle;html=1;whiteSpace=wrap;connectable=0;overflow=hidden;fillColor=none;top=0;left=0;bottom=0;right=0;pointerEvents=1;" vertex="1" parent="H97n-G6GHY3fc7BMN22Z-97">
                    <mxGeometry x="180" width="60" height="40" as="geometry">
                        <mxRectangle width="60" height="40" as="alternateBounds"/>
                    </mxGeometry>
                </mxCell>
                <mxCell id="H97n-G6GHY3fc7BMN22Z-102" value="" style="shape=partialRectangle;html=1;whiteSpace=wrap;connectable=0;overflow=hidden;fillColor=none;top=0;left=0;bottom=0;right=0;pointerEvents=1;" vertex="1" parent="H97n-G6GHY3fc7BMN22Z-97">
                    <mxGeometry x="240" width="60" height="40" as="geometry">
                        <mxRectangle width="60" height="40" as="alternateBounds"/>
                    </mxGeometry>
                </mxCell>
                <mxCell id="H97n-G6GHY3fc7BMN22Z-103" value="" style="shape=partialRectangle;collapsible=0;dropTarget=0;pointerEvents=0;fillColor=none;top=0;left=0;bottom=0;right=0;points=[[0,0.5],[1,0.5]];portConstraint=eastwest;" vertex="1" parent="H97n-G6GHY3fc7BMN22Z-0">
                    <mxGeometry y="680" width="300" height="40" as="geometry"/>
                </mxCell>
                <mxCell id="H97n-G6GHY3fc7BMN22Z-104" value="" style="shape=partialRectangle;html=1;whiteSpace=wrap;connectable=0;overflow=hidden;fillColor=none;top=0;left=0;bottom=0;right=0;pointerEvents=1;" vertex="1" parent="H97n-G6GHY3fc7BMN22Z-103">
                    <mxGeometry width="60" height="40" as="geometry">
                        <mxRectangle width="60" height="40" as="alternateBounds"/>
                    </mxGeometry>
                </mxCell>
                <mxCell id="H97n-G6GHY3fc7BMN22Z-105" value="" style="shape=partialRectangle;html=1;whiteSpace=wrap;connectable=0;overflow=hidden;fillColor=none;top=0;left=0;bottom=0;right=0;pointerEvents=1;" vertex="1" parent="H97n-G6GHY3fc7BMN22Z-103">
                    <mxGeometry x="60" width="60" height="40" as="geometry">
                        <mxRectangle width="60" height="40" as="alternateBounds"/>
                    </mxGeometry>
                </mxCell>
                <mxCell id="H97n-G6GHY3fc7BMN22Z-106" value="" style="shape=partialRectangle;html=1;whiteSpace=wrap;connectable=0;overflow=hidden;fillColor=none;top=0;left=0;bottom=0;right=0;pointerEvents=1;" vertex="1" parent="H97n-G6GHY3fc7BMN22Z-103">
                    <mxGeometry x="120" width="60" height="40" as="geometry">
                        <mxRectangle width="60" height="40" as="alternateBounds"/>
                    </mxGeometry>
                </mxCell>
                <mxCell id="H97n-G6GHY3fc7BMN22Z-107" value="" style="shape=partialRectangle;html=1;whiteSpace=wrap;connectable=0;overflow=hidden;fillColor=none;top=0;left=0;bottom=0;right=0;pointerEvents=1;" vertex="1" parent="H97n-G6GHY3fc7BMN22Z-103">
                    <mxGeometry x="180" width="60" height="40" as="geometry">
                        <mxRectangle width="60" height="40" as="alternateBounds"/>
                    </mxGeometry>
                </mxCell>
                <mxCell id="H97n-G6GHY3fc7BMN22Z-108" value="" style="shape=partialRectangle;html=1;whiteSpace=wrap;connectable=0;overflow=hidden;fillColor=none;top=0;left=0;bottom=0;right=0;pointerEvents=1;" vertex="1" parent="H97n-G6GHY3fc7BMN22Z-103">
                    <mxGeometry x="240" width="60" height="40" as="geometry">
                        <mxRectangle width="60" height="40" as="alternateBounds"/>
                    </mxGeometry>
                </mxCell>
                <mxCell id="H97n-G6GHY3fc7BMN22Z-109" value="" style="shape=partialRectangle;collapsible=0;dropTarget=0;pointerEvents=0;fillColor=none;top=0;left=0;bottom=0;right=0;points=[[0,0.5],[1,0.5]];portConstraint=eastwest;" vertex="1" parent="H97n-G6GHY3fc7BMN22Z-0">
                    <mxGeometry y="720" width="300" height="40" as="geometry"/>
                </mxCell>
                <mxCell id="H97n-G6GHY3fc7BMN22Z-110" value="" style="shape=partialRectangle;html=1;whiteSpace=wrap;connectable=0;overflow=hidden;fillColor=none;top=0;left=0;bottom=0;right=0;pointerEvents=1;" vertex="1" parent="H97n-G6GHY3fc7BMN22Z-109">
                    <mxGeometry width="60" height="40" as="geometry">
                        <mxRectangle width="60" height="40" as="alternateBounds"/>
                    </mxGeometry>
                </mxCell>
                <mxCell id="H97n-G6GHY3fc7BMN22Z-111" value="" style="shape=partialRectangle;html=1;whiteSpace=wrap;connectable=0;overflow=hidden;fillColor=none;top=0;left=0;bottom=0;right=0;pointerEvents=1;" vertex="1" parent="H97n-G6GHY3fc7BMN22Z-109">
                    <mxGeometry x="60" width="60" height="40" as="geometry">
                        <mxRectangle width="60" height="40" as="alternateBounds"/>
                    </mxGeometry>
                </mxCell>
                <mxCell id="H97n-G6GHY3fc7BMN22Z-112" value="" style="shape=partialRectangle;html=1;whiteSpace=wrap;connectable=0;overflow=hidden;fillColor=none;top=0;left=0;bottom=0;right=0;pointerEvents=1;" vertex="1" parent="H97n-G6GHY3fc7BMN22Z-109">
                    <mxGeometry x="120" width="60" height="40" as="geometry">
                        <mxRectangle width="60" height="40" as="alternateBounds"/>
                    </mxGeometry>
                </mxCell>
                <mxCell id="H97n-G6GHY3fc7BMN22Z-113" value="" style="shape=partialRectangle;html=1;whiteSpace=wrap;connectable=0;overflow=hidden;fillColor=none;top=0;left=0;bottom=0;right=0;pointerEvents=1;" vertex="1" parent="H97n-G6GHY3fc7BMN22Z-109">
                    <mxGeometry x="180" width="60" height="40" as="geometry">
                        <mxRectangle width="60" height="40" as="alternateBounds"/>
                    </mxGeometry>
                </mxCell>
                <mxCell id="H97n-G6GHY3fc7BMN22Z-114" value="" style="shape=partialRectangle;html=1;whiteSpace=wrap;connectable=0;overflow=hidden;fillColor=none;top=0;left=0;bottom=0;right=0;pointerEvents=1;" vertex="1" parent="H97n-G6GHY3fc7BMN22Z-109">
                    <mxGeometry x="240" width="60" height="40" as="geometry">
                        <mxRectangle width="60" height="40" as="alternateBounds"/>
                    </mxGeometry>
                </mxCell>
                <mxCell id="H97n-G6GHY3fc7BMN22Z-115" value="" style="shape=partialRectangle;collapsible=0;dropTarget=0;pointerEvents=0;fillColor=none;top=0;left=0;bottom=0;right=0;points=[[0,0.5],[1,0.5]];portConstraint=eastwest;" vertex="1" parent="H97n-G6GHY3fc7BMN22Z-0">
                    <mxGeometry y="760" width="300" height="40" as="geometry"/>
                </mxCell>
                <mxCell id="H97n-G6GHY3fc7BMN22Z-116" value="" style="shape=partialRectangle;html=1;whiteSpace=wrap;connectable=0;overflow=hidden;fillColor=none;top=0;left=0;bottom=0;right=0;pointerEvents=1;" vertex="1" parent="H97n-G6GHY3fc7BMN22Z-115">
                    <mxGeometry width="60" height="40" as="geometry">
                        <mxRectangle width="60" height="40" as="alternateBounds"/>
                    </mxGeometry>
                </mxCell>
                <mxCell id="H97n-G6GHY3fc7BMN22Z-117" value="" style="shape=partialRectangle;html=1;whiteSpace=wrap;connectable=0;overflow=hidden;fillColor=none;top=0;left=0;bottom=0;right=0;pointerEvents=1;" vertex="1" parent="H97n-G6GHY3fc7BMN22Z-115">
                    <mxGeometry x="60" width="60" height="40" as="geometry">
                        <mxRectangle width="60" height="40" as="alternateBounds"/>
                    </mxGeometry>
                </mxCell>
                <mxCell id="H97n-G6GHY3fc7BMN22Z-118" value="" style="shape=partialRectangle;html=1;whiteSpace=wrap;connectable=0;overflow=hidden;fillColor=none;top=0;left=0;bottom=0;right=0;pointerEvents=1;" vertex="1" parent="H97n-G6GHY3fc7BMN22Z-115">
                    <mxGeometry x="120" width="60" height="40" as="geometry">
                        <mxRectangle width="60" height="40" as="alternateBounds"/>
                    </mxGeometry>
                </mxCell>
                <mxCell id="H97n-G6GHY3fc7BMN22Z-119" value="" style="shape=partialRectangle;html=1;whiteSpace=wrap;connectable=0;overflow=hidden;fillColor=none;top=0;left=0;bottom=0;right=0;pointerEvents=1;" vertex="1" parent="H97n-G6GHY3fc7BMN22Z-115">
                    <mxGeometry x="180" width="60" height="40" as="geometry">
                        <mxRectangle width="60" height="40" as="alternateBounds"/>
                    </mxGeometry>
                </mxCell>
                <mxCell id="H97n-G6GHY3fc7BMN22Z-120" value="" style="shape=partialRectangle;html=1;whiteSpace=wrap;connectable=0;overflow=hidden;fillColor=none;top=0;left=0;bottom=0;right=0;pointerEvents=1;" vertex="1" parent="H97n-G6GHY3fc7BMN22Z-115">
                    <mxGeometry x="240" width="60" height="40" as="geometry">
                        <mxRectangle width="60" height="40" as="alternateBounds"/>
                    </mxGeometry>
                </mxCell>
            </root>
        </mxGraphModel>
    </diagram>
</mxfile>